<svg width="759" height="260" viewBox="0 0 759 260" fill="none" xmlns="http://www.w3.org/2000/svg">
<mask id="path-1-outside-1_15_49" maskUnits="userSpaceOnUse" x="10" y="109" width="749" height="98" fill="black">
<rect fill="white" x="10" y="109" width="749" height="98"/>
<path d="M23.5455 204L11.9091 110.909H36.7727L40.7727 171.909H41.5455L67.6364 110.909H87.9091L93.9091 172.045H94.6364L118.818 110.909H143.636L101.136 204H79.4545L72.1364 147.545H71.4091L45.1818 204H23.5455ZM137.477 204L152.932 110.909H217.841L214.75 129.182H172.341L169.25 148.273H208.341L205.25 166.591H166.159L163.068 185.727H205.477L202.386 204H137.477ZM216.477 204L231.932 110.909H270.75C277.72 110.909 283.402 111.894 287.795 113.864C292.189 115.833 295.28 118.591 297.068 122.136C298.886 125.682 299.402 129.788 298.614 134.455C297.977 137.97 296.674 141.121 294.705 143.909C292.765 146.667 290.341 148.97 287.432 150.818C284.523 152.636 281.311 153.909 277.795 154.636L277.614 155.545C281.371 155.697 284.689 156.697 287.568 158.545C290.477 160.394 292.629 162.985 294.023 166.318C295.417 169.621 295.735 173.5 294.977 177.955C294.159 182.955 292.144 187.424 288.932 191.364C285.75 195.273 281.553 198.364 276.341 200.636C271.129 202.879 265.098 204 258.25 204H216.477ZM242.068 185.864H255.977C260.795 185.864 264.523 184.939 267.159 183.091C269.826 181.212 271.402 178.636 271.886 175.364C272.28 172.97 272.068 170.909 271.25 169.182C270.432 167.424 269.068 166.076 267.159 165.136C265.25 164.167 262.841 163.682 259.932 163.682H245.614L242.068 185.864ZM248.114 149.182H260.614C263.038 149.182 265.265 148.773 267.295 147.955C269.356 147.136 271.053 145.955 272.386 144.409C273.75 142.864 274.598 141 274.932 138.818C275.447 135.697 274.735 133.242 272.795 131.455C270.856 129.667 268.023 128.773 264.295 128.773H251.477L248.114 149.182ZM383.977 204L399.432 110.909H421.932L415.75 148.273H452.432L458.614 110.909H481.068L465.614 204H443.159L449.341 166.591H412.659L406.477 204H383.977ZM551.5 110.909H573.955L564 170.955C562.848 177.894 560.197 183.939 556.045 189.091C551.924 194.212 546.667 198.182 540.273 201C533.879 203.788 526.758 205.182 518.909 205.182C511.03 205.182 504.379 203.788 498.955 201C493.53 198.182 489.606 194.212 487.182 189.091C484.758 183.939 484.106 177.894 485.227 170.955L495.182 110.909H517.682L508 169C507.485 172.212 507.727 175.076 508.727 177.591C509.758 180.076 511.424 182.045 513.727 183.5C516.03 184.924 518.848 185.636 522.182 185.636C525.545 185.636 528.621 184.924 531.409 183.5C534.197 182.045 536.5 180.076 538.318 177.591C540.136 175.076 541.303 172.212 541.818 169L551.5 110.909ZM667.284 110.909L651.83 204H632.739L604.693 150.273H604.057L595.102 204H572.602L588.057 110.909H607.42L635.239 164.545H636.011L644.83 110.909H667.284ZM675.295 129.182L678.386 110.909H757.068L753.977 129.182H725.75L713.386 204H691.205L703.568 129.182H675.295Z"/>
</mask>
<path d="M23.5455 204L11.9091 110.909H36.7727L40.7727 171.909H41.5455L67.6364 110.909H87.9091L93.9091 172.045H94.6364L118.818 110.909H143.636L101.136 204H79.4545L72.1364 147.545H71.4091L45.1818 204H23.5455ZM137.477 204L152.932 110.909H217.841L214.75 129.182H172.341L169.25 148.273H208.341L205.25 166.591H166.159L163.068 185.727H205.477L202.386 204H137.477ZM216.477 204L231.932 110.909H270.75C277.72 110.909 283.402 111.894 287.795 113.864C292.189 115.833 295.28 118.591 297.068 122.136C298.886 125.682 299.402 129.788 298.614 134.455C297.977 137.97 296.674 141.121 294.705 143.909C292.765 146.667 290.341 148.97 287.432 150.818C284.523 152.636 281.311 153.909 277.795 154.636L277.614 155.545C281.371 155.697 284.689 156.697 287.568 158.545C290.477 160.394 292.629 162.985 294.023 166.318C295.417 169.621 295.735 173.5 294.977 177.955C294.159 182.955 292.144 187.424 288.932 191.364C285.75 195.273 281.553 198.364 276.341 200.636C271.129 202.879 265.098 204 258.25 204H216.477ZM242.068 185.864H255.977C260.795 185.864 264.523 184.939 267.159 183.091C269.826 181.212 271.402 178.636 271.886 175.364C272.28 172.97 272.068 170.909 271.25 169.182C270.432 167.424 269.068 166.076 267.159 165.136C265.25 164.167 262.841 163.682 259.932 163.682H245.614L242.068 185.864ZM248.114 149.182H260.614C263.038 149.182 265.265 148.773 267.295 147.955C269.356 147.136 271.053 145.955 272.386 144.409C273.75 142.864 274.598 141 274.932 138.818C275.447 135.697 274.735 133.242 272.795 131.455C270.856 129.667 268.023 128.773 264.295 128.773H251.477L248.114 149.182ZM383.977 204L399.432 110.909H421.932L415.75 148.273H452.432L458.614 110.909H481.068L465.614 204H443.159L449.341 166.591H412.659L406.477 204H383.977ZM551.5 110.909H573.955L564 170.955C562.848 177.894 560.197 183.939 556.045 189.091C551.924 194.212 546.667 198.182 540.273 201C533.879 203.788 526.758 205.182 518.909 205.182C511.03 205.182 504.379 203.788 498.955 201C493.53 198.182 489.606 194.212 487.182 189.091C484.758 183.939 484.106 177.894 485.227 170.955L495.182 110.909H517.682L508 169C507.485 172.212 507.727 175.076 508.727 177.591C509.758 180.076 511.424 182.045 513.727 183.5C516.03 184.924 518.848 185.636 522.182 185.636C525.545 185.636 528.621 184.924 531.409 183.5C534.197 182.045 536.5 180.076 538.318 177.591C540.136 175.076 541.303 172.212 541.818 169L551.5 110.909ZM667.284 110.909L651.83 204H632.739L604.693 150.273H604.057L595.102 204H572.602L588.057 110.909H607.42L635.239 164.545H636.011L644.83 110.909H667.284ZM675.295 129.182L678.386 110.909H757.068L753.977 129.182H725.75L713.386 204H691.205L703.568 129.182H675.295Z" fill="url(#paint0_linear_15_49)"/>
<path d="M23.5455 204L22.5532 204.124L22.6627 205H23.5455V204ZM11.9091 110.909V109.909H10.7763L10.9168 111.033L11.9091 110.909ZM36.7727 110.909L37.7706 110.844L37.7093 109.909H36.7727V110.909ZM40.7727 171.909L39.7749 171.975L39.8362 172.909H40.7727V171.909ZM41.5455 171.909V172.909H42.2054L42.4649 172.302L41.5455 171.909ZM67.6364 110.909V109.909H66.9765L66.7169 110.516L67.6364 110.909ZM87.9091 110.909L88.9043 110.811L88.8158 109.909H87.9091V110.909ZM93.9091 172.045L92.9139 172.143L93.0024 173.045H93.9091V172.045ZM94.6364 172.045V173.045H95.3162L95.5663 172.413L94.6364 172.045ZM118.818 110.909V109.909H118.138L117.888 110.541L118.818 110.909ZM143.636 110.909L144.546 111.324L145.192 109.909H143.636V110.909ZM101.136 204V205H101.779L102.046 204.415L101.136 204ZM79.4545 204L78.4628 204.129L78.5758 205H79.4545V204ZM72.1364 147.545L73.1281 147.417L73.0151 146.545H72.1364V147.545ZM71.4091 147.545V146.545H70.771L70.5022 147.124L71.4091 147.545ZM45.1818 204V205H45.8199L46.0887 204.421L45.1818 204ZM24.5377 203.876L12.9014 110.785L10.9168 111.033L22.5532 204.124L24.5377 203.876ZM11.9091 111.909H36.7727V109.909H11.9091V111.909ZM35.7749 110.975L39.7749 171.975L41.7706 171.844L37.7706 110.844L35.7749 110.975ZM40.7727 172.909H41.5455V170.909H40.7727V172.909ZM42.4649 172.302L68.5558 111.302L66.7169 110.516L40.626 171.516L42.4649 172.302ZM67.6364 111.909H87.9091V109.909H67.6364V111.909ZM86.9139 111.007L92.9139 172.143L94.9043 171.948L88.9043 110.811L86.9139 111.007ZM93.9091 173.045H94.6364V171.045H93.9091V173.045ZM95.5663 172.413L119.748 111.277L117.888 110.541L93.7065 171.678L95.5663 172.413ZM118.818 111.909H143.636V109.909H118.818V111.909ZM142.727 110.494L100.227 203.585L102.046 204.415L144.546 111.324L142.727 110.494ZM101.136 203H79.4545V205H101.136V203ZM80.4462 203.871L73.1281 147.417L71.1447 147.674L78.4628 204.129L80.4462 203.871ZM72.1364 146.545H71.4091V148.545H72.1364V146.545ZM70.5022 147.124L44.2749 203.579L46.0887 204.421L72.316 147.967L70.5022 147.124ZM45.1818 203H23.5455V205H45.1818V203ZM137.477 204L136.491 203.836L136.298 205H137.477V204ZM152.932 110.909V109.909H152.084L151.945 110.745L152.932 110.909ZM217.841 110.909L218.827 111.076L219.024 109.909H217.841V110.909ZM214.75 129.182V130.182H215.595L215.736 129.349L214.75 129.182ZM172.341 129.182V128.182H171.49L171.354 129.022L172.341 129.182ZM169.25 148.273L168.263 148.113L168.075 149.273H169.25V148.273ZM208.341 148.273L209.327 148.439L209.524 147.273H208.341V148.273ZM205.25 166.591V167.591H206.095L206.236 166.757L205.25 166.591ZM166.159 166.591V165.591H165.308L165.172 166.431L166.159 166.591ZM163.068 185.727L162.081 185.568L161.894 186.727H163.068V185.727ZM205.477 185.727L206.463 185.894L206.661 184.727H205.477V185.727ZM202.386 204V205H203.231L203.372 204.167L202.386 204ZM138.464 204.164L153.918 111.073L151.945 110.745L136.491 203.836L138.464 204.164ZM152.932 111.909H217.841V109.909H152.932V111.909ZM216.855 110.742L213.764 129.015L215.736 129.349L218.827 111.076L216.855 110.742ZM214.75 128.182H172.341V130.182H214.75V128.182ZM171.354 129.022L168.263 148.113L170.237 148.433L173.328 129.342L171.354 129.022ZM169.25 149.273H208.341V147.273H169.25V149.273ZM207.355 148.106L204.264 166.425L206.236 166.757L209.327 148.439L207.355 148.106ZM205.25 165.591H166.159V167.591H205.25V165.591ZM165.172 166.431L162.081 185.568L164.055 185.887L167.146 166.75L165.172 166.431ZM163.068 186.727H205.477V184.727H163.068V186.727ZM204.491 185.56L201.4 203.833L203.372 204.167L206.463 185.894L204.491 185.56ZM202.386 203H137.477V205H202.386V203ZM216.477 204L215.491 203.836L215.298 205H216.477V204ZM231.932 110.909V109.909H231.084L230.945 110.745L231.932 110.909ZM297.068 122.136L296.175 122.587L296.178 122.593L297.068 122.136ZM298.614 134.455L299.598 134.633L299.6 134.621L298.614 134.455ZM294.705 143.909L293.888 143.332L293.887 143.334L294.705 143.909ZM287.432 150.818L287.962 151.666L287.968 151.662L287.432 150.818ZM277.795 154.636L277.593 153.657L276.945 153.791L276.815 154.44L277.795 154.636ZM277.614 155.545L276.633 155.349L276.403 156.497L277.573 156.545L277.614 155.545ZM287.568 158.545L287.028 159.387L287.032 159.389L287.568 158.545ZM294.023 166.318L293.1 166.704L293.101 166.707L294.023 166.318ZM294.977 177.955L293.991 177.787L293.99 177.793L294.977 177.955ZM288.932 191.364L288.157 190.732L288.156 190.732L288.932 191.364ZM276.341 200.636L276.736 201.555L276.741 201.553L276.341 200.636ZM242.068 185.864L241.081 185.706L240.896 186.864H242.068V185.864ZM267.159 183.091L267.733 183.91L267.735 183.908L267.159 183.091ZM271.886 175.364L270.9 175.201L270.898 175.209L270.897 175.217L271.886 175.364ZM271.25 169.182L270.343 169.604L270.346 169.61L271.25 169.182ZM267.159 165.136L266.706 166.028L266.718 166.034L267.159 165.136ZM245.614 163.682V162.682H244.761L244.626 163.524L245.614 163.682ZM248.114 149.182L247.127 149.019L246.935 150.182H248.114V149.182ZM267.295 147.955L266.926 147.025L266.922 147.027L267.295 147.955ZM272.386 144.409L271.636 143.747L271.629 143.756L272.386 144.409ZM274.932 138.818L273.945 138.655L273.943 138.667L274.932 138.818ZM251.477 128.773V127.773H250.629L250.491 128.61L251.477 128.773ZM217.464 204.164L232.918 111.073L230.945 110.745L215.491 203.836L217.464 204.164ZM231.932 111.909H270.75V109.909H231.932V111.909ZM270.75 111.909C277.637 111.909 283.165 112.884 287.386 114.776L288.204 112.951C283.638 110.904 277.803 109.909 270.75 109.909V111.909ZM287.386 114.776C291.617 116.673 294.512 119.287 296.175 122.587L297.961 121.686C296.049 117.895 292.762 114.994 288.204 112.951L287.386 114.776ZM296.178 122.593C297.881 125.912 298.387 129.793 297.628 134.288L299.6 134.621C300.417 129.783 299.892 125.451 297.958 121.68L296.178 122.593ZM297.63 134.276C297.018 137.655 295.769 140.669 293.888 143.332L295.521 144.486C297.579 141.574 298.937 138.285 299.598 134.633L297.63 134.276ZM293.887 143.334C292.024 145.982 289.697 148.194 286.896 149.974L287.968 151.662C290.985 149.745 293.506 147.352 295.523 144.484L293.887 143.334ZM286.902 149.97C284.098 151.723 280.997 152.953 277.593 153.657L277.998 155.616C281.624 154.865 284.948 153.55 287.962 151.666L286.902 149.97ZM276.815 154.44L276.633 155.349L278.594 155.742L278.776 154.832L276.815 154.44ZM277.573 156.545C281.171 156.69 284.313 157.644 287.028 159.387L288.108 157.704C285.065 155.75 281.571 154.704 277.654 154.546L277.573 156.545ZM287.032 159.389C289.76 161.123 291.781 163.55 293.1 166.704L294.945 165.932C293.477 162.42 291.195 159.665 288.104 157.701L287.032 159.389ZM293.101 166.707C294.404 169.794 294.725 173.472 293.991 177.787L295.963 178.122C296.744 173.528 296.429 169.448 294.944 165.929L293.101 166.707ZM293.99 177.793C293.201 182.62 291.259 186.927 288.157 190.732L289.707 191.996C293.029 187.921 295.118 183.289 295.964 178.116L293.99 177.793ZM288.156 190.732C285.087 194.503 281.026 197.503 275.941 199.72L276.741 201.553C282.08 199.225 286.413 196.043 289.707 191.995L288.156 190.732ZM275.946 199.718C270.881 201.897 264.99 203 258.25 203V205C265.207 205 271.376 203.861 276.736 201.555L275.946 199.718ZM258.25 203H216.477V205H258.25V203ZM242.068 186.864H255.977V184.864H242.068V186.864ZM255.977 186.864C260.905 186.864 264.864 185.921 267.733 183.91L266.585 182.272C264.181 183.957 260.686 184.864 255.977 184.864V186.864ZM267.735 183.908C270.629 181.869 272.351 179.049 272.876 175.51L270.897 175.217C270.452 178.223 269.022 180.555 266.583 182.273L267.735 183.908ZM272.873 175.526C273.291 172.985 273.08 170.709 272.154 168.754L270.346 169.61C271.057 171.109 271.269 172.954 270.9 175.201L272.873 175.526ZM272.157 168.76C271.233 166.775 269.693 165.269 267.601 164.239L266.718 166.034C268.443 166.883 269.631 168.074 270.343 169.604L272.157 168.76ZM267.612 164.245C265.521 163.183 262.945 162.682 259.932 162.682V164.682C262.737 164.682 264.979 165.15 266.706 166.028L267.612 164.245ZM259.932 162.682H245.614V164.682H259.932V162.682ZM244.626 163.524L241.081 185.706L243.056 186.021L246.601 163.84L244.626 163.524ZM248.114 150.182H260.614V148.182H248.114V150.182ZM260.614 150.182C263.152 150.182 265.508 149.753 267.669 148.882L266.922 147.027C265.022 147.792 262.924 148.182 260.614 148.182V150.182ZM267.664 148.884C269.862 148.012 271.696 146.74 273.144 145.062L271.629 143.756C270.41 145.169 268.85 146.261 266.926 147.025L267.664 148.884ZM273.136 145.071C274.636 143.371 275.56 141.327 275.92 138.969L273.943 138.667C273.637 140.673 272.864 142.356 271.637 143.747L273.136 145.071ZM275.918 138.981C276.476 135.604 275.712 132.783 273.473 130.719L272.118 132.19C273.758 133.702 274.418 135.79 273.945 138.655L275.918 138.981ZM273.473 130.719C271.285 128.702 268.17 127.773 264.295 127.773V129.773C267.875 129.773 270.427 130.631 272.118 132.19L273.473 130.719ZM264.295 127.773H251.477V129.773H264.295V127.773ZM250.491 128.61L247.127 149.019L249.1 149.344L252.464 128.935L250.491 128.61ZM383.977 204L382.991 203.836L382.798 205H383.977V204ZM399.432 110.909V109.909H398.584L398.445 110.745L399.432 110.909ZM421.932 110.909L422.918 111.072L423.111 109.909H421.932V110.909ZM415.75 148.273L414.763 148.109L414.571 149.273H415.75V148.273ZM452.432 148.273V149.273H453.28L453.418 148.436L452.432 148.273ZM458.614 110.909V109.909H457.766L457.627 110.746L458.614 110.909ZM481.068 110.909L482.055 111.073L482.248 109.909H481.068V110.909ZM465.614 204V205H466.461L466.6 204.164L465.614 204ZM443.159 204L442.172 203.837L441.98 205H443.159V204ZM449.341 166.591L450.328 166.754L450.52 165.591H449.341V166.591ZM412.659 166.591V165.591H411.811L411.672 166.428L412.659 166.591ZM406.477 204V205H407.326L407.464 204.163L406.477 204ZM384.964 204.164L400.418 111.073L398.445 110.745L382.991 203.836L384.964 204.164ZM399.432 111.909H421.932V109.909H399.432V111.909ZM420.945 110.746L414.763 148.109L416.737 148.436L422.918 111.072L420.945 110.746ZM415.75 149.273H452.432V147.273H415.75V149.273ZM453.418 148.436L459.6 111.072L457.627 110.746L451.445 148.109L453.418 148.436ZM458.614 111.909H481.068V109.909H458.614V111.909ZM480.082 110.745L464.627 203.836L466.6 204.164L482.055 111.073L480.082 110.745ZM465.614 203H443.159V205H465.614V203ZM444.146 204.163L450.328 166.754L448.354 166.428L442.172 203.837L444.146 204.163ZM449.341 165.591H412.659V167.591H449.341V165.591ZM411.672 166.428L405.491 203.837L407.464 204.163L413.646 166.754L411.672 166.428ZM406.477 203H383.977V205H406.477V203ZM551.5 110.909V109.909H550.653L550.514 110.745L551.5 110.909ZM573.955 110.909L574.941 111.073L575.134 109.909H573.955V110.909ZM564 170.955L564.987 171.118V171.118L564 170.955ZM556.045 189.091L555.267 188.463L555.266 188.464L556.045 189.091ZM540.273 201L540.672 201.917L540.676 201.915L540.273 201ZM498.955 201L498.493 201.887L498.497 201.889L498.955 201ZM487.182 189.091L486.277 189.517L486.278 189.519L487.182 189.091ZM485.227 170.955L484.241 170.791L484.24 170.795L485.227 170.955ZM495.182 110.909V109.909H494.334L494.195 110.746L495.182 110.909ZM517.682 110.909L518.668 111.073L518.862 109.909H517.682V110.909ZM508 169L507.014 168.836L507.013 168.842L508 169ZM508.727 177.591L507.798 177.96L507.801 177.967L507.804 177.974L508.727 177.591ZM513.727 183.5L513.193 184.346L513.201 184.351L513.727 183.5ZM531.409 183.5L531.864 184.391L531.872 184.387L531.409 183.5ZM538.318 177.591L539.125 178.181L539.129 178.177L538.318 177.591ZM541.818 169L540.832 168.836L540.831 168.842L541.818 169ZM551.5 111.909H573.955V109.909H551.5V111.909ZM572.968 110.746L563.013 170.791L564.987 171.118L574.941 111.073L572.968 110.746ZM563.013 170.791C561.888 177.571 559.303 183.455 555.267 188.463L556.824 189.718C561.091 184.424 563.809 178.216 564.987 171.118L563.013 170.791ZM555.266 188.464C551.252 193.453 546.126 197.327 539.869 200.085L540.676 201.915C547.207 199.036 552.597 194.972 556.825 189.718L555.266 188.464ZM539.873 200.083C533.62 202.81 526.637 204.182 518.909 204.182V206.182C526.878 206.182 534.138 204.766 540.672 201.917L539.873 200.083ZM518.909 204.182C511.144 204.182 504.659 202.808 499.412 200.111L498.497 201.889C504.098 204.768 510.916 206.182 518.909 206.182V204.182ZM499.416 200.113C494.169 197.387 490.409 193.571 488.086 188.663L486.278 189.519C488.803 194.853 492.892 198.977 498.493 201.887L499.416 200.113ZM488.087 188.665C485.766 183.735 485.118 177.902 486.214 171.114L484.24 170.795C483.094 177.886 483.749 184.144 486.277 189.517L488.087 188.665ZM486.214 171.118L496.168 111.073L494.195 110.746L484.241 170.791L486.214 171.118ZM495.182 111.909H517.682V109.909H495.182V111.909ZM516.695 110.745L507.014 168.836L508.986 169.164L518.668 111.073L516.695 110.745ZM507.013 168.842C506.475 172.196 506.719 175.247 507.798 177.96L509.657 177.221C508.735 174.905 508.495 172.229 508.987 169.158L507.013 168.842ZM507.804 177.974C508.914 180.652 510.718 182.782 513.193 184.345L514.261 182.655C512.13 181.309 510.601 179.499 509.651 177.208L507.804 177.974ZM513.201 184.351C515.695 185.893 518.706 186.636 522.182 186.636V184.636C518.991 184.636 516.365 183.956 514.253 182.649L513.201 184.351ZM522.182 186.636C525.692 186.636 528.925 185.892 531.864 184.391L530.954 182.609C528.318 183.956 525.399 184.636 522.182 184.636V186.636ZM531.872 184.387C534.793 182.863 537.214 180.793 539.125 178.181L537.511 177C535.786 179.359 533.601 181.228 530.947 182.613L531.872 184.387ZM539.129 178.177C541.043 175.529 542.267 172.517 542.806 169.158L540.831 168.842C540.339 171.907 539.23 174.623 537.508 177.005L539.129 178.177ZM542.805 169.164L552.486 111.073L550.514 110.745L540.832 168.836L542.805 169.164ZM667.284 110.909L668.271 111.073L668.464 109.909H667.284V110.909ZM651.83 204V205H652.677L652.816 204.164L651.83 204ZM632.739 204L631.852 204.463L632.133 205H632.739V204ZM604.693 150.273L605.58 149.81L605.299 149.273H604.693V150.273ZM604.057 150.273V149.273H603.21L603.07 150.108L604.057 150.273ZM595.102 204V205H595.949L596.089 204.164L595.102 204ZM572.602 204L571.616 203.836L571.423 205H572.602V204ZM588.057 110.909V109.909H587.209L587.07 110.745L588.057 110.909ZM607.42 110.909L608.308 110.449L608.028 109.909H607.42V110.909ZM635.239 164.545L634.351 165.006L634.631 165.545H635.239V164.545ZM636.011 164.545V165.545H636.86L636.998 164.708L636.011 164.545ZM644.83 110.909V109.909H643.981L643.843 110.747L644.83 110.909ZM666.298 110.745L650.843 203.836L652.816 204.164L668.271 111.073L666.298 110.745ZM651.83 203H632.739V205H651.83V203ZM633.625 203.537L605.58 149.81L603.807 150.735L631.852 204.463L633.625 203.537ZM604.693 149.273H604.057V151.273H604.693V149.273ZM603.07 150.108L594.116 203.836L596.089 204.164L605.043 150.437L603.07 150.108ZM595.102 203H572.602V205H595.102V203ZM573.589 204.164L589.043 111.073L587.07 110.745L571.616 203.836L573.589 204.164ZM588.057 111.909H607.42V109.909H588.057V111.909ZM606.533 111.369L634.351 165.006L636.126 164.085L608.308 110.449L606.533 111.369ZM635.239 165.545H636.011V163.545H635.239V165.545ZM636.998 164.708L645.816 111.071L643.843 110.747L635.025 164.383L636.998 164.708ZM644.83 111.909H667.284V109.909H644.83V111.909ZM675.295 129.182L674.309 129.015L674.112 130.182H675.295V129.182ZM678.386 110.909V109.909H677.541L677.4 110.742L678.386 110.909ZM757.068 110.909L758.054 111.076L758.252 109.909H757.068V110.909ZM753.977 129.182V130.182H754.822L754.963 129.349L753.977 129.182ZM725.75 129.182V128.182H724.902L724.763 129.019L725.75 129.182ZM713.386 204V205H714.235L714.373 204.163L713.386 204ZM691.205 204L690.218 203.837L690.026 205H691.205V204ZM703.568 129.182L704.555 129.345L704.747 128.182H703.568V129.182ZM676.281 129.349L679.372 111.076L677.4 110.742L674.309 129.015L676.281 129.349ZM678.386 111.909H757.068V109.909H678.386V111.909ZM756.082 110.742L752.991 129.015L754.963 129.349L758.054 111.076L756.082 110.742ZM753.977 128.182H725.75V130.182H753.977V128.182ZM724.763 129.019L712.4 203.837L714.373 204.163L726.737 129.345L724.763 129.019ZM713.386 203H691.205V205H713.386V203ZM692.191 204.163L704.555 129.345L702.582 129.019L690.218 203.837L692.191 204.163ZM703.568 128.182H675.295V130.182H703.568V128.182Z" fill="white" mask="url(#path-1-outside-1_15_49)"/>
<path d="M313.324 136.803C313.221 137.266 312.97 137.662 312.572 137.989C312.193 138.26 311.768 138.531 311.296 138.8C310.824 139.07 310.334 139.348 309.825 139.636C309.315 139.923 308.879 140.268 308.516 140.67C308.459 140.743 308.428 140.873 308.424 141.059C308.44 141.19 308.354 141.3 308.166 141.389C308.09 141.425 307.996 141.47 307.883 141.523C307.79 141.521 307.706 141.538 307.63 141.574C307.329 141.716 307.117 142.047 306.994 142.566C306.909 143.068 306.714 143.483 306.408 143.812C305.873 144.434 305.286 144.897 304.645 145.2C304.005 145.503 303.606 145.877 303.447 146.321C303.094 147.133 302.92 147.885 302.924 148.574C302.965 149.246 303.129 149.883 303.414 150.486C303.878 151.465 304.585 152.375 305.537 153.215C306.508 154 307.486 154.897 308.471 155.906L308.524 156.019C308.56 156.094 308.585 156.197 308.601 156.328C308.655 156.441 308.699 156.535 308.735 156.61C308.789 156.723 308.834 156.771 308.872 156.753C308.983 156.793 309.267 157.004 309.725 157.386C310.183 157.769 310.668 158.161 311.182 158.564C311.748 159.079 312.38 159.633 313.075 160.226C313.685 161.32 314.522 162.307 315.584 163.187C316.646 164.067 317.746 164.929 318.884 165.773C320.041 166.562 321.123 167.387 322.13 168.247C323.174 169.089 323.946 170.038 324.445 171.092C324.711 171.75 324.796 172.563 324.701 173.53C324.625 174.442 324.476 175.342 324.252 176.232C324.028 177.122 323.797 177.9 323.559 178.566C323.341 179.176 323.232 179.481 323.232 179.481C323.285 179.594 323.339 179.707 323.392 179.82C323.483 179.915 323.547 180.001 323.582 180.076C323.703 180.526 323.672 181.14 323.487 181.919C323.303 182.698 323.043 183.512 322.708 184.363C322.411 185.195 322.068 185.98 321.679 186.717C321.311 187.399 320.956 187.867 320.615 188.12C320.52 188.211 320.338 188.412 320.071 188.724C319.859 189.055 319.628 189.394 319.378 189.743C319.146 190.13 318.905 190.497 318.656 190.846C318.443 191.177 318.271 191.397 318.138 191.506C317.835 191.742 317.09 192.164 315.903 192.772C314.733 193.418 313.527 194.035 312.284 194.624C311.192 195.141 310.196 195.567 309.294 195.902C308.43 196.219 307.926 196.227 307.784 195.926L307.757 195.869C307.343 196.065 306.994 196.254 306.71 196.434C306.482 196.634 306.18 196.823 305.804 197.002C305.54 197.127 305.23 197.25 304.873 197.373C304.554 197.478 304.217 197.546 303.862 197.575C303.545 197.587 303.248 197.544 302.97 197.444C302.673 197.401 302.471 197.266 302.364 197.04C302.15 196.588 302.189 196.086 302.48 195.533C302.771 194.98 302.999 194.342 303.164 193.618C303.311 192.857 303.469 191.975 303.64 190.973C303.793 189.932 303.972 188.948 304.178 188.021C304.367 187.056 304.598 186.231 304.874 185.547C305.169 184.808 305.505 184.349 305.882 184.171C306.296 183.975 306.611 184.056 306.827 184.415C307.081 184.756 307.324 185.171 307.555 185.661C307.769 186.112 308.003 186.509 308.257 186.85C308.548 187.173 308.939 187.218 309.428 186.987C309.842 186.79 310.108 186.572 310.225 186.333C310.324 186.055 310.581 185.818 310.995 185.622C311.334 185.462 311.605 185.402 311.81 185.444C312.051 185.468 312.264 185.528 312.449 185.625C312.633 185.722 312.846 185.783 313.088 185.807C313.33 185.83 313.658 185.744 314.072 185.548C314.75 185.227 315.44 184.739 316.144 184.083C316.868 183.371 317.775 182.757 318.867 182.24C319.432 181.972 320.024 181.761 320.642 181.607C320.551 181.512 320.452 181.351 320.345 181.125C320.22 180.861 320.123 180.608 320.054 180.364C320.022 180.102 319.944 179.84 319.819 179.576C319.551 179.011 319.194 178.743 318.746 178.77C318.318 178.743 317.884 178.556 317.444 178.211C316.861 177.565 316.373 176.875 315.978 176.139C315.566 175.366 315.087 174.694 314.54 174.124C314.429 174.084 314.326 174.11 314.23 174.201C314.155 174.237 314.045 174.15 313.9 173.942C313.811 173.754 313.695 173.509 313.553 173.208C313.448 172.889 313.315 172.56 313.154 172.221C312.958 171.807 312.743 171.401 312.509 171.005C312.258 170.571 311.975 170.267 311.662 170.092C311.516 169.977 311.164 169.867 310.607 169.762C310.05 169.657 309.579 169.442 309.195 169.117C308.644 168.732 308.116 168.153 307.61 167.378C307.143 166.585 306.605 166.033 305.996 165.722C305.923 165.664 305.737 165.66 305.437 165.71C305.176 165.741 305.008 165.729 304.935 165.671C304.388 165.1 303.81 164.221 303.202 163.034C302.576 161.809 301.625 160.531 300.349 159.199C300.275 159.141 300.182 159.139 300.069 159.193C299.956 159.246 299.846 159.16 299.739 158.934C299.452 158.425 299.191 157.972 298.957 157.576C298.743 157.124 298.538 156.691 298.342 156.276C297.379 154.243 297.19 152.189 297.775 150.114C298.397 148.021 299.365 145.926 300.677 143.829C300.889 143.498 301.136 143.289 301.417 143.202C301.736 143.097 301.992 142.907 302.184 142.631C302.339 142.374 302.383 142.03 302.318 141.6C302.253 141.17 302.446 140.848 302.898 140.634C302.973 140.598 303.057 140.581 303.15 140.583C303.263 140.53 303.358 140.485 303.433 140.45C303.659 140.343 303.785 140.122 303.811 139.787C303.856 139.396 303.955 139.119 304.108 138.954C304.53 138.386 305.081 137.894 305.761 137.48C306.461 137.01 307.089 136.39 307.646 135.619C307.818 135.399 307.907 135.149 307.913 134.87C307.939 134.535 308.065 134.314 308.291 134.207C308.479 134.118 308.677 134.048 308.883 133.996C309.126 133.927 309.342 133.847 309.531 133.758C309.757 133.651 309.928 133.478 310.045 133.238C310.144 132.961 310.307 132.768 310.533 132.661C310.947 132.465 311.403 132.503 311.9 132.774C312.435 133.028 312.845 133.456 313.131 134.059C313.505 134.85 313.57 135.764 313.324 136.803ZM349.742 125.503C350.344 126.97 350.752 128.367 350.966 129.695C351.218 131.005 351.331 132.265 351.305 133.476C351.317 134.669 351.236 135.814 351.064 136.91C350.891 138.006 350.691 139.092 350.463 140.168C350.318 140.836 350.222 141.412 350.174 141.895C350.109 142.341 350.026 142.749 349.925 143.12C349.824 143.491 349.686 143.832 349.511 144.146C349.337 144.459 349.051 144.779 348.652 145.106C348.387 145.324 348.073 145.587 347.713 145.896C347.372 146.15 347.122 146.499 346.963 146.943C346.924 147.054 346.92 147.24 346.951 147.502C346.965 147.726 346.952 147.893 346.913 148.004C346.719 148.373 346.432 148.693 346.054 148.964C345.695 149.18 345.418 149.473 345.224 149.841C345.048 150.247 344.948 150.571 344.924 150.813C344.9 151.055 344.782 151.341 344.57 151.672C344.358 152.003 344.071 152.323 343.711 152.633C343.37 152.886 343.074 153.187 342.825 153.536C342.65 153.849 342.55 154.173 342.524 154.508C342.518 154.788 342.409 155.093 342.197 155.424C341.791 156.123 341.434 156.684 341.127 157.106C340.802 157.491 340.597 157.934 340.511 158.435C340.464 158.919 340.553 159.545 340.779 160.314C341.005 161.083 341.465 162.202 342.161 163.67C342.571 164.537 342.982 165.356 343.394 166.129C343.844 166.884 344.196 167.432 344.45 167.773C344.541 167.868 344.779 168.078 345.163 168.403C345.567 168.673 346.027 168.962 346.542 169.272C347.095 169.563 347.668 169.799 348.261 169.979C348.835 170.122 349.349 170.086 349.801 169.872C350.478 169.551 350.965 169.021 351.26 168.282C351.538 167.505 351.908 166.777 352.369 166.097C352.716 165.564 353.169 164.865 353.728 164.001C354.269 163.1 354.633 162.213 354.819 161.341C354.863 161.044 354.909 160.653 354.956 160.17C354.986 159.648 355.044 159.137 355.129 158.636C355.234 158.079 355.393 157.588 355.608 157.164C355.841 156.684 356.184 156.338 356.636 156.124C356.825 156.034 357.096 155.975 357.451 155.945C357.716 156.603 357.786 157.285 357.659 157.991C357.569 158.678 357.406 159.355 357.168 160.021C356.95 160.631 356.752 161.186 356.573 161.686C356.395 162.185 356.359 162.548 356.466 162.774C356.502 162.849 356.555 162.962 356.627 163.113C356.718 163.208 356.781 163.293 356.817 163.368C356.906 163.557 356.752 163.814 356.353 164.141C355.975 164.413 355.707 164.724 355.55 165.075C355.451 165.352 355.408 165.649 355.42 165.967C355.451 166.228 355.409 166.479 355.292 166.719C355.038 167.254 354.748 167.76 354.42 168.238C354.093 168.715 353.813 169.194 353.579 169.674C353.343 170.246 353.115 170.884 352.895 171.588C352.713 172.274 352.513 172.922 352.294 173.532C352.094 174.18 351.858 174.753 351.587 175.25C351.353 175.73 351.066 176.05 350.728 176.211C350.539 176.3 350.314 176.36 350.053 176.392C349.847 176.443 349.649 176.514 349.461 176.603C349.273 176.692 349.158 176.839 349.116 177.043C349.075 177.247 348.96 177.394 348.771 177.483C348.432 177.643 347.957 177.661 347.344 177.536C346.75 177.449 346.266 177.401 345.894 177.393C345.277 177.455 344.594 177.617 343.842 177.881C343.109 178.182 342.538 178.291 342.13 178.208C341.759 178.106 341.356 177.79 340.92 177.259C340.522 176.71 340.038 176.225 339.47 175.802C338.919 175.418 338.375 175.145 337.838 174.985C337.3 174.824 336.95 174.668 336.785 174.515C336.603 174.325 336.404 174.05 336.188 173.691C335.992 173.277 335.795 172.863 335.599 172.449C335.385 171.997 335.161 171.573 334.927 171.176C334.676 170.742 334.413 170.382 334.14 170.097C334.049 170.002 333.929 169.943 333.78 169.922C333.614 169.862 333.459 169.682 333.316 169.381C333.334 169.418 333.355 169.316 333.379 169.074C333.422 168.777 333.409 168.553 333.337 168.402C332.117 165.338 331.043 162.389 330.115 159.555C329.208 156.665 328.511 153.976 328.023 151.487C327.518 148.96 327.268 146.681 327.275 144.649C327.301 142.562 327.647 140.762 328.313 139.248C328.43 139.008 328.61 138.853 328.854 138.784C329.117 138.659 329.308 138.477 329.424 138.237C329.464 138.126 329.458 137.967 329.407 137.761C329.375 137.5 329.379 137.313 329.419 137.202C329.536 136.963 329.707 136.789 329.933 136.682C330.197 136.557 330.368 136.384 330.447 136.162C330.525 136.033 330.604 135.811 330.685 135.496C330.766 135.181 330.839 134.847 330.902 134.494C330.966 134.142 331.038 133.808 331.119 133.492C331.183 133.14 331.282 132.862 331.417 132.66C331.726 132.145 332.174 131.679 332.761 131.263C333.347 130.847 333.824 130.344 334.191 129.756C334.306 129.609 334.404 129.378 334.485 129.063C334.566 128.748 334.648 128.433 334.729 128.118C334.83 127.747 334.93 127.423 335.029 127.146C335.128 126.868 335.272 126.685 335.46 126.596C335.536 126.56 335.639 126.534 335.769 126.519C335.882 126.465 335.977 126.421 336.052 126.385C336.127 126.349 336.303 125.989 336.578 125.306C336.891 124.604 337.193 124.024 337.482 123.564C337.559 123.435 337.553 123.276 337.464 123.088C337.395 122.844 337.399 122.658 337.476 122.529C337.593 122.289 337.841 122.034 338.219 121.762C338.58 121.453 338.895 121.096 339.165 120.692C339.377 120.361 339.514 120.066 339.575 119.806C339.637 119.547 339.931 119.292 340.458 119.042C341.867 118.513 343.019 118.268 343.913 118.305C344.806 118.343 345.555 118.657 346.157 119.248C346.779 119.783 347.349 120.597 347.866 121.689C348.403 122.725 349.028 123.997 349.742 125.503ZM341.721 129.302C341.647 129.244 341.434 129.184 341.082 129.12C340.749 129.001 340.546 128.913 340.472 128.856C340.27 128.721 340.124 128.559 340.035 128.371C339.928 128.145 339.811 127.947 339.685 127.776C339.558 127.606 339.411 127.491 339.245 127.432C339.116 127.354 338.92 127.378 338.656 127.503C338.43 127.61 338.154 127.902 337.826 128.38C337.519 128.802 337.201 129.298 336.872 129.869C336.581 130.422 336.308 130.966 336.054 131.501C335.801 132.036 335.643 132.434 335.582 132.693C335.5 133.008 335.433 133.547 335.379 134.31C335.346 135.018 335.302 135.753 335.248 136.516C335.232 137.261 335.2 137.922 335.15 138.499C335.101 139.076 335.057 139.373 335.019 139.391C335.055 139.466 335.099 139.56 335.153 139.673C335.244 139.768 335.308 139.854 335.343 139.929C335.45 140.155 335.398 140.433 335.186 140.764C334.956 141.058 334.957 141.449 335.188 141.939C335.278 142.127 335.403 142.344 335.566 142.59C335.711 142.798 335.828 142.996 335.917 143.184C336.059 143.486 336.07 143.849 335.949 144.275C335.866 144.684 335.867 145.075 335.952 145.45C336.184 146.815 336.46 148.275 336.781 149.829C337.084 151.345 337.548 152.762 338.172 154.08C338.368 154.494 338.575 154.834 338.793 155.1C339.031 155.31 339.395 155.299 339.884 155.067C340.223 154.906 340.441 154.734 340.539 154.55C340.655 154.31 340.726 154.069 340.75 153.827C340.756 153.548 340.752 153.296 340.738 153.072C340.724 152.848 340.747 152.653 340.806 152.487C341.082 151.803 341.424 151.065 341.832 150.272C342.24 149.479 342.64 148.668 343.03 147.837C343.441 146.951 343.813 146.083 344.148 145.233C344.521 144.365 344.799 143.542 344.984 142.763C345.008 142.521 344.978 142.166 344.895 141.699C344.794 141.193 344.767 140.699 344.815 140.215C344.916 138.969 344.751 137.502 344.321 135.815C343.929 134.111 343.296 132.336 342.422 130.491C342.333 130.303 342.216 130.104 342.072 129.896C341.965 129.67 341.848 129.472 341.721 129.302ZM381.729 96.5236C381.745 96.6544 381.797 96.814 381.886 97.0023C381.975 97.1905 382.056 97.36 382.127 97.5106C382.218 97.6058 382.299 97.7287 382.371 97.8793C382.567 98.2935 382.643 98.6493 382.6 98.9465C382.538 99.2062 382.421 99.446 382.249 99.6659C382.076 99.8859 381.876 100.096 381.648 100.296C381.458 100.478 381.323 100.681 381.244 100.903C381.184 101.069 381.104 101.338 381.003 101.708C380.884 102.041 380.755 102.402 380.616 102.79C380.515 103.161 380.386 103.522 380.23 103.872C380.111 104.205 380.003 104.464 379.906 104.648C379.599 105.07 379.151 105.536 378.562 106.045C377.993 106.499 377.507 106.983 377.105 107.496C376.703 108.009 376.386 108.459 376.154 108.846C375.904 109.194 375.664 109.515 375.434 109.809C375.204 110.102 374.9 110.384 374.521 110.656C374.143 110.927 373.596 111.232 372.88 111.571C372.845 111.496 372.762 111.42 372.634 111.342C372.505 111.265 372.403 111.244 372.327 111.28C372.29 111.298 372.261 111.334 372.241 111.39C372.081 111.927 371.783 112.321 371.349 112.573C370.953 112.807 370.592 113.116 370.267 113.5C369.962 113.829 369.801 114.367 369.785 115.112C369.807 115.839 370.175 116.956 370.888 118.462C371.066 118.839 371.264 119.206 371.48 119.565C371.696 119.924 371.893 120.292 372.071 120.668C372.553 121.685 372.993 122.859 373.394 124.191C373.776 125.485 374.175 126.864 374.591 128.326C374.99 129.751 375.396 131.242 375.81 132.798C376.244 134.298 376.752 135.809 377.335 137.331C378.145 139.529 378.963 141.793 379.79 144.121C380.653 146.432 381.594 148.661 382.61 150.807C383.447 150.042 383.988 149.141 384.234 148.102C384.499 147.008 384.792 145.971 385.111 144.99C385.271 144.453 385.461 143.879 385.679 143.269C385.917 142.603 386.155 141.937 386.392 141.271C386.412 141.215 386.405 141.103 386.372 140.935C386.358 140.711 386.344 140.487 386.33 140.263C386.336 139.984 386.36 139.742 386.401 139.538C386.425 139.296 386.494 139.148 386.607 139.095C386.682 139.059 386.785 139.033 386.916 139.018C387.047 139.002 387.15 138.976 387.225 138.94C387.338 138.887 387.406 138.739 387.43 138.497C387.454 138.256 387.488 137.986 387.531 137.689C387.613 137.374 387.722 137.068 387.858 136.773C387.995 136.478 388.233 136.25 388.572 136.089C388.685 136.036 388.788 136.01 388.881 136.012C388.994 135.959 389.095 136.026 389.184 136.214C389.452 136.779 389.458 137.376 389.202 138.004C388.984 138.614 388.832 139.17 388.747 139.672C388.384 141.826 387.889 144.043 387.263 146.322C386.674 148.583 386.304 151.063 386.154 153.763C386.09 154.115 386.029 154.375 385.969 154.542C385.91 154.708 385.85 154.875 385.791 155.041C385.713 155.17 385.589 155.344 385.416 155.564C385.281 155.766 385.088 156.088 384.836 156.53C384.567 156.935 384.38 157.369 384.277 157.832C384.174 158.296 384.043 158.75 383.885 159.194C383.782 159.658 383.587 160.073 383.299 160.439C383.03 160.844 382.612 161.18 382.047 161.447C381.728 161.552 381.291 161.506 380.736 161.307C380.182 161.109 379.628 160.864 379.075 160.573C378.542 160.226 378.046 159.861 377.588 159.479C377.131 159.096 376.848 158.792 376.741 158.566C376.616 158.302 376.439 157.879 376.209 157.297C375.999 156.658 375.772 155.936 375.529 155.129C375.285 154.323 375.023 153.478 374.744 152.596C374.484 151.659 374.206 150.73 373.909 149.811C373.984 149.775 374.069 149.712 374.165 149.621C374.242 149.492 374.263 149.39 374.227 149.314C374.098 149.237 373.979 149.132 373.87 148.999C373.65 148.827 373.424 148.496 373.193 148.006C372.907 147.404 372.625 146.661 372.345 145.78C372.048 144.86 371.76 143.959 371.481 143.077C371.221 142.14 370.978 141.286 370.752 140.518C370.546 139.693 370.364 139.065 370.206 138.633C369.958 138.012 369.7 137.42 369.433 136.855C369.165 136.29 368.917 135.716 368.687 135.134C368.457 134.551 368.256 133.932 368.083 133.275C367.911 132.619 367.768 131.88 367.656 131.058C367.412 130.251 367.103 129.452 366.728 128.662C366.391 127.853 366.101 127.045 365.857 126.239C365.754 125.826 365.681 125.331 365.638 124.752C365.594 124.174 365.486 123.556 365.314 122.9C365.193 122.45 365.026 121.953 364.814 121.408C364.584 120.825 364.372 120.28 364.178 119.773C363.984 119.265 363.807 118.842 363.646 118.503C363.523 118.146 363.471 117.987 363.489 118.025C363.231 117.87 362.699 117.914 361.892 118.158C361.123 118.384 360.325 118.693 359.496 119.086C358.291 119.656 357.365 120.279 356.716 120.955C356.05 121.593 355.708 122.378 355.688 123.31C355.682 123.589 355.703 123.878 355.753 124.178C355.84 124.459 355.89 124.758 355.902 125.075C355.933 125.337 355.872 125.597 355.717 125.854C355.6 126.094 355.316 126.321 354.864 126.535C354.638 126.642 354.375 126.72 354.076 126.77C353.814 126.802 353.603 126.648 353.443 126.309C353.193 125.782 353.111 125.267 353.196 124.766C353.282 124.265 353.432 123.755 353.648 123.238C353.902 122.703 354.183 122.178 354.493 121.663C354.784 121.11 355.001 120.546 355.144 119.971C355.243 119.694 355.22 119.451 355.076 119.243C354.931 119.035 354.88 118.782 354.924 118.485C354.946 118.336 355.042 118.198 355.212 118.071C355.42 117.927 355.544 117.799 355.584 117.688C355.584 117.688 355.6 117.381 355.632 116.766C355.646 116.114 355.765 115.343 355.989 114.454C356.213 113.564 356.558 112.686 357.023 111.82C357.527 110.936 358.23 110.28 359.134 109.852C359.21 109.816 359.442 109.821 359.833 109.867C360.205 109.875 360.505 109.825 360.731 109.718C361.145 109.522 361.285 109.087 361.15 108.413C361.035 107.684 360.8 106.896 360.446 106.05C360.129 105.186 359.783 104.358 359.408 103.567C359.054 102.721 358.871 102.093 358.861 101.683C358.82 101.011 358.921 100.202 359.165 99.2568C359.446 98.2936 359.718 97.3582 359.98 96.4505C360.221 95.5983 360.415 94.8383 360.559 94.1704C360.704 93.5025 360.885 92.9099 361.101 92.3927C361.299 91.8378 361.57 91.3403 361.915 90.9004C362.298 90.4426 362.838 90.0255 363.536 89.649C363.506 90.1702 363.567 90.7866 363.72 91.4981C363.872 92.2096 364.043 92.9587 364.231 93.7456C364.439 94.4769 364.656 95.2271 364.882 95.996C365.09 96.7274 365.252 97.4111 365.369 98.0473L365.449 98.2168C365.521 98.3674 365.583 98.4992 365.637 98.6122C365.728 98.7073 365.809 98.8302 365.88 98.9808C365.952 99.1315 365.976 99.3277 365.952 99.5695C365.928 99.8113 365.93 100.156 365.958 100.604C366.023 101.034 366.151 101.596 366.341 102.29C366.531 102.983 366.885 103.876 367.402 104.968C367.652 105.495 367.886 105.892 368.104 106.157C368.304 106.385 368.534 106.53 368.793 106.592C369.073 106.597 369.41 106.53 369.804 106.389C370.218 106.193 370.745 105.944 371.386 105.64C373.758 104.517 375.599 103.391 376.909 102.264C378.219 101.136 379.043 100.101 379.38 99.1573C379.459 98.9354 379.608 98.5192 379.826 97.9088C380.064 97.2429 380.409 96.803 380.861 96.589C381.162 96.4463 381.451 96.4245 381.729 96.5236Z" fill="white"/>
<defs>
<linearGradient id="paint0_linear_15_49" x1="380" y1="123" x2="380" y2="221.5" gradientUnits="userSpaceOnUse">
<stop stop-color="#FEFEFE"/>
<stop offset="1" stop-opacity="0.42"/>
</linearGradient>
</defs>
</svg>
